<svg width="518" height="344" viewBox="0 0 518 344" fill="none" xmlns="http://www.w3.org/2000/svg">
<path d="M27.0689 20.9606C53.3175 6.98687 81.2067 0 110.736 0C135.344 0 157.492 4.93191 177.178 14.7957C197.685 24.6595 212.86 38.6332 222.703 56.7168C213.68 95.35 198.915 142.614 178.409 198.509C158.722 253.582 140.266 299.202 123.04 335.369C107.455 341.123 92.6904 344 78.7458 344C62.3405 344 47.1655 341.123 33.2209 335.369C19.2763 328.793 8.20269 319.34 0 307.011C9.02296 241.252 18.0459 145.902 27.0689 20.9606ZM322.366 20.9606C348.614 6.98687 376.504 0 406.033 0C430.641 0 452.789 4.93191 472.475 14.7957C492.982 24.6595 508.157 38.6332 518 56.7168C508.977 95.35 494.212 142.614 473.706 198.509C454.019 253.582 435.563 299.202 418.337 335.369C402.752 341.123 387.987 344 374.043 344C357.637 344 342.462 341.123 328.518 335.369C314.573 328.793 303.5 319.34 295.297 307.011C304.32 241.252 313.343 145.902 322.366 20.9606Z" fill="#8D6E63"/>
</svg>
